/* XPM */
static char * Closed_Exit_xpm[] = {
"50 50 49 1",
" 	c #4C585C",
".	c #707070",
"+	c #83A0AA",
"@	c #5E7A84",
"#	c #FE0917",
"$	c #FF0010",
"%	c #F6211D",
"&	c #849FA9",
"*	c #F72127",
"=	c #000000",
"-	c #010303",
";	c #F33C39",
">	c #637A82",
",	c #FE0810",
"'	c #767676",
")	c #030505",
"!	c #F04143",
"~	c #EF3734",
"{	c #FD1620",
"]	c #4A4A4A",
"^	c #F24148",
"/	c #F73339",
"(	c #F63239",
"_	c #FD1922",
":	c #F63439",
"<	c #FC1B24",
"[	c #F63539",
"}	c #FC1D26",
"|	c #F6383A",
"1	c #F6373A",
"2	c #FC1F27",
"3	c #F53539",
"4	c #F43A3E",
"5	c #030506",
"6	c #ED4C49",
"7	c #F02F37",
"8	c #06090A",
"9	c #EF2E30",
"0	c #F04448",
"a	c #0D0C0A",
"b	c #F24040",
"c	c #F62529",
"d	c #070503",
"e	c #F13D3B",
"f	c #F5383D",
"g	c #F92A32",
"h	c #F81E27",
"i	c #FE0816",
"j	c #F62424",
"             .........................            ",
"           ...+++++++++++++++++++++++..           ",
"         ...++++++++++++++++++++++++++..          ",
"       ...+++++++++++++++++++++++++++++...        ",
"     ...++++++++++++@+@++@+@+++++++++++++...      ",
"    ..+++++++++@+@++@+@++@+@++@+@++++++++++..     ",
"   ..+++++@+@++@+@++@+@++@+@++@+@++@+@++++++..    ",
"  ..++++++@+@++@+@++@+@++@+@++@+@++@+@+++++++..   ",
"  .++++@++@+@++@+@++@+@++@+@++@+@++@+@++@+++++..  ",
" ..++++@++@+@++@+@++@+@++@+@++@+@++@+@++@++++++.. ",
"..+++++@++@+@++@+@++@+@++@+@++@+@++@+@++@+++++++..",
".++++++@++@+@++@+@++@+@++@+@++@+@++@+@++@++++++++.",
".++++++@++@+@++@+@++@+@++@+@++@+@++@+@++@++++++++.",
".++++++@++@+@++@+@++@+@++@+@++@+@++@+@++@++++++++.",
".++++++@++@+@#$$$$$$$$$$$$$$$$$$$$$$$%++@++++++++.",
".++++++@++@&*========================-;+@++++++++.",
".++++++@++>,=''''''''''''''''''''''''')!@++++++++.",
".++++++@++$='''''''''''''''''''''''''''=~++++++++.",
".++++++@+{='']]''''''''''''''''''''']]''-^+++++++.",
".++++++@+{='']]''''''''''''''''''''']]''=/+++++++.",
".++++++@+{='''''''''''''''''''''''''''''=(+++++++.",
".++++++@+_=''''']]]]]]]]]]]]]]]]]]]'''''=/+++++++.",
".++++++@+_='''''''''''''''''''''''''''''=:+++++++.",
".++++++@+_=''''']]]]]]]]]]]]]]]]]]]'''''=:+++++++.",
".++++++@+<=''''']]]]]]]]]]]]]]]]]]]'''''=[+++++++.",
".++++++@+<='''''''''''''''''''''''''''''=[+++++++.",
".++++++@+<=''''']]]]]]]]]]]]]]]]]]]'''''=[+++++++.",
".++++++@+}='''''''''''''''''''''''''''''=|+++++++.",
".++++++@+}=''''']]]]]]]]]]]]]]]]]]]'''''=[+++++++.",
".++++++@+}='''''''''''''''''''''''''''''=1+++++++.",
".++++++@+2='']]''''''''''''''''''''']]''=3+++++++.",
".++++++@+45'']]''''''''''''''''''''']]''-6+++++++.",
".++++++@++7)'''''''''''''''''''''''''''89++++++++.",
".++++++@++@0='''''''''''''''''''''''''ab@++++++++.",
".++++++@++@+c)=======================de+@++++++++.",
".++++++@++@+@fghghgghghgghghgghgi$$$$j++@++++++++.",
".++++++@++@+@++@+@++@+@++@+@++@+@++@+@++@++++++++.",
".++++++@++@+@++@+@++@+@++@+@++@+@++@+@++@++++++++.",
".++++++@++@+@++@+@++@+@++@+@++@+@++@+@++@++++++++.",
".++++++@++@+@++@+@++@+@++@+@++@+@++@+@++@+++++++..",
"..+++++@++@+@++@+@++@+@++@+@++@+@++@+@++@++++++.. ",
" .+++++@++@+@++@+@++@+@++@+@++@+@++@+@++@+++++..  ",
" ..++++@++@+@++@+@++@+@++@+@++@+@++@+@++@+++++..  ",
"  .++++@++@+@++@+@++@+@++@+@++@+@++@+@++@++++..   ",
"  ..++++++@+@++@+@++@+@++@+@++@+@++@+@++++++..    ",
"    .+++++@+@++@+@++@+@++@+@++@+@++@+@+++++..     ",
"     .+++++++++@+@++@+@++@+@++@+@++++++++++..     ",
"     ..+++++++++++++@+@++@+@++++@+++++++++..      ",
"       ..++++++++++++++++++++++++++++++++..       ",
"        ..................................        "};
