/* XPM */
static char * Collectible_xpm[] = {
"50 50 889 2",
"  	c #4C585C",
". 	c #4E585C",
"+ 	c #50585C",
"@ 	c #51575B",
"# 	c #53575B",
"$ 	c #55575B",
"% 	c #58575B",
"& 	c #5B575A",
"* 	c #5E565A",
"= 	c #7D6E6D",
"- 	c #806D6D",
"; 	c #826D6C",
"> 	c #836C6B",
", 	c #876C6B",
"' 	c #876B6A",
") 	c #8B6B6A",
"! 	c #8A6B69",
"~ 	c #8C6B69",
"{ 	c #8D6A69",
"] 	c #8D6B68",
"^ 	c #906B68",
"/ 	c #8E6A68",
"( 	c #8B6B69",
"_ 	c #856C6B",
": 	c #816D6C",
"< 	c #7E6D6D",
"[ 	c #56575B",
"} 	c #5A575B",
"| 	c #5B565A",
"1 	c #929AA3",
"2 	c #9499A2",
"3 	c #9898A1",
"4 	c #9A98A0",
"5 	c #9A979F",
"6 	c #9C969E",
"7 	c #9D969E",
"8 	c #9E959D",
"9 	c #9F959C",
"0 	c #A0959C",
"a 	c #9D969D",
"b 	c #9798A1",
"c 	c #9599A2",
"d 	c #816C6C",
"e 	c #61565A",
"f 	c #7C6E6D",
"g 	c #7F6D6D",
"h 	c #806D6C",
"i 	c #9798A0",
"j 	c #99979F",
"k 	c #A0949B",
"l 	c #A1949A",
"m 	c #A3939A",
"n 	c #A59399",
"o 	c #A69399",
"p 	c #A59398",
"q 	c #A4939A",
"r 	c #A3949A",
"s 	c #A2949B",
"t 	c #9B979F",
"u 	c #645659",
"v 	c #60565A",
"w 	c #7A6E6E",
"x 	c #919AA4",
"y 	c #9399A2",
"z 	c #9C979E",
"A 	c #9E959C",
"B 	c #A1949B",
"C 	c #A2949A",
"D 	c #A79298",
"E 	c #A89297",
"F 	c #AA9196",
"G 	c #AB9195",
"H 	c #AC9195",
"I 	c #AA9296",
"J 	c #A99297",
"K 	c #9998A1",
"L 	c #866C6A",
"M 	c #846C6C",
"N 	c #5D565A",
"O 	c #786E6E",
"P 	c #919BA4",
"Q 	c #9599A1",
"R 	c #A99195",
"S 	c #AB9194",
"T 	c #9C7172",
"U 	c #AD9093",
"V 	c #9E7171",
"W 	c #B09092",
"X 	c #A07271",
"Y 	c #9F7271",
"Z 	c #AE9093",
"` 	c #AC9094",
" .	c #9998A0",
"..	c #766E6E",
"+.	c #8E9CA6",
"@.	c #949AA3",
"#.	c #9698A1",
"$.	c #A1959C",
"%.	c #A79398",
"&.	c #977175",
"*.	c #B19092",
"=.	c #A47270",
"-.	c #B48F90",
";.	c #A5726F",
">.	c #B48F8F",
",.	c #B48F8E",
"'.	c #A6726E",
").	c #A5726E",
"!.	c #B58F8F",
"~.	c #B29091",
"{.	c #9E7271",
"].	c #9F949B",
"^.	c #939AA3",
"/.	c #776F6F",
"(.	c #8F9BA4",
"_.	c #9399A3",
":.	c #9C979F",
"<.	c #88737A",
"[.	c #917176",
"}.	c #AF9092",
"|.	c #B38F8F",
"1.	c #B58F8E",
"2.	c #A9726D",
"3.	c #B78F8C",
"4.	c #AB736C",
"5.	c #B98F8B",
"6.	c #AE736B",
"7.	c #AC736B",
"8.	c #B98E8B",
"9.	c #B88F8C",
"0.	c #A9736D",
"a.	c #B68F8D",
"b.	c #B39090",
"c.	c #9D7172",
"d.	c #766F6F",
"e.	c #8D9CA6",
"f.	c #8E7278",
"g.	c #A59298",
"h.	c #987274",
"i.	c #AC9194",
"j.	c #AE9092",
"k.	c #A8726D",
"l.	c #B88E8B",
"m.	c #BB8F8A",
"n.	c #B0756A",
"o.	c #BC8E88",
"p.	c #B07569",
"q.	c #BD8F88",
"r.	c #BE8F87",
"s.	c #B27668",
"t.	c #B27568",
"u.	c #BC8F88",
"v.	c #AF746A",
"w.	c #BA8E8A",
"x.	c #B78E8D",
"y.	c #A4726F",
"z.	c #796E6E",
"A.	c #8E9BA4",
"B.	c #83747B",
"C.	c #957175",
"D.	c #AA9195",
"E.	c #AE746A",
"F.	c #B47667",
"G.	c #C19085",
"H.	c #B67867",
"I.	c #C29185",
"J.	c #C19184",
"K.	c #B67966",
"L.	c #C19185",
"M.	c #C08F85",
"N.	c #B57767",
"O.	c #BF8F87",
"P.	c #B27569",
"Q.	c #BB8F89",
"R.	c #A27270",
"S.	c #AD9193",
"T.	c #967175",
"U.	c #8F9CA5",
"V.	c #9899A1",
"W.	c #887379",
"X.	c #A89298",
"Y.	c #997173",
"Z.	c #AD736B",
"`.	c #B47668",
" +	c #C39184",
".+	c #B97B65",
"++	c #C49383",
"@+	c #BA7E64",
"#+	c #C49482",
"$+	c #C59582",
"%+	c #BB8064",
"&+	c #BA8064",
"*+	c #C59482",
"=+	c #B87C65",
"-+	c #C08F86",
";+	c #B0746A",
">+	c #BA8F8B",
",+	c #A8736E",
"'+	c #B38F90",
")+	c #9B7173",
"!+	c #929BA4",
"~+	c #9E969D",
"{+	c #8C7278",
"]+	c #BC8E89",
"^+	c #B37668",
"/+	c #B87A66",
"(+	c #BB8263",
"_+	c #C59880",
":+	c #BC8663",
"<+	c #C69B80",
"[+	c #BC8962",
"}+	c #BC8863",
"|+	c #C69A80",
"1+	c #C79980",
"2+	c #BC8263",
"3+	c #C59581",
"4+	c #B97D64",
"5+	c #C49183",
"6+	c #9F7171",
"7+	c #8C9DA6",
"8+	c #9898A0",
"9+	c #947276",
"0+	c #A3726F",
"a+	c #B67866",
"b+	c #C39283",
"c+	c #BB7E64",
"d+	c #C59780",
"e+	c #BD8A62",
"f+	c #C7A07F",
"g+	c #BE9162",
"h+	c #C7A47F",
"i+	c #C9A67F",
"j+	c #BE9561",
"k+	c #C8A67E",
"l+	c #BF9362",
"m+	c #C7A37F",
"n+	c #C8A07F",
"o+	c #BD8B62",
"p+	c #BD8363",
"q+	c #C69581",
"r+	c #C49282",
"s+	c #B77966",
"t+	c #B17569",
"u+	c #7B6E6E",
"v+	c #8E9CA5",
"w+	c #919AA3",
"x+	c #C18F86",
"y+	c #C39084",
"z+	c #BA7C64",
"A+	c #C59680",
"B+	c #BC8662",
"C+	c #C79F7F",
"D+	c #BE9661",
"E+	c #C9AA7E",
"F+	c #C29F61",
"G+	c #C9B07E",
"H+	c #CAB27D",
"I+	c #C1A461",
"J+	c #CAB37D",
"K+	c #C1A261",
"L+	c #C9AF7E",
"M+	c #C9AC7E",
"N+	c #C09861",
"O+	c #C9A47F",
"P+	c #BE8E62",
"Q+	c #C39183",
"R+	c #9F959B",
"S+	c #9D959D",
"T+	c #B09091",
"U+	c #B57667",
"V+	c #C49382",
"W+	c #C89C80",
"X+	c #BE9062",
"Y+	c #C8A77E",
"Z+	c #C9AD7E",
"`+	c #C1A361",
" @	c #CBB57D",
".@	c #C2AB60",
"+@	c #CDBB7B",
"@@	c #CDBC7B",
"#@	c #C5B05E",
"$@	c #CFBC7B",
"%@	c #C5AE5F",
"&@	c #CCBA7C",
"*@	c #CBB77D",
"=@	c #C0A360",
"-@	c #C9AE7E",
";@	c #C09961",
">@	c #C79E7F",
",@	c #BC8463",
"'@	c #B87B65",
")@	c #AD746B",
"!@	c #B68F8E",
"~@	c #B19090",
"{@	c #A4949A",
"]@	c #A1959B",
"^@	c #B88E8C",
"/@	c #AF756A",
"(@	c #B87966",
"_@	c #C69780",
":@	c #C09B61",
"<@	c #CAB17D",
"[@	c #CAB67C",
"}@	c #C4AE5F",
"|@	c #CFBF79",
"1@	c #C8B65C",
"2@	c #D1C477",
"3@	c #D2C576",
"4@	c #CBBC5A",
"5@	c #D3C776",
"6@	c #CBBA5B",
"7@	c #D0C477",
"8@	c #CFC079",
"9@	c #C6B05E",
"0@	c #CBB97C",
"a@	c #C1A460",
"b@	c #C8A57E",
"c@	c #BE8D62",
"d@	c #C69980",
"e@	c #C18F85",
"f@	c #BA8F8A",
"g@	c #C89E7F",
"h@	c #C0A460",
"i@	c #CEBB7C",
"j@	c #C9B85C",
"k@	c #D4C975",
"l@	c #D0C058",
"m@	c #D7CD6F",
"n@	c #DACF6E",
"o@	c #D5C654",
"p@	c #D9CE6D",
"q@	c #D1C555",
"r@	c #D8CB71",
"s@	c #D5CA74",
"t@	c #CABB5B",
"u@	c #D0C179",
"v@	c #CBB67D",
"w@	c #CAAF7D",
"x@	c #C19762",
"y@	c #BC8563",
"z@	c #C29083",
"A@	c #B57668",
"B@	c #B78E8C",
"C@	c #B28F90",
"D@	c #826C6C",
"E@	c #9D979F",
"F@	c #BB8163",
"G@	c #C09C61",
"H@	c #D1C378",
"I@	c #D4C875",
"J@	c #D1C157",
"K@	c #DBD06D",
"L@	c #DACB50",
"M@	c #E1D664",
"N@	c #E4D961",
"O@	c #DFD14B",
"P@	c #E5D861",
"Q@	c #DDD24C",
"R@	c #E0D466",
"S@	c #DDD16B",
"T@	c #D3C356",
"U@	c #CAB95C",
"V@	c #CFBD7B",
"W@	c #C19F61",
"X@	c #C9A67E",
"Y@	c #BD8C62",
"Z@	c #C59382",
"`@	c #BE8E87",
" #	c #896B6A",
".#	c #846C6B",
"+#	c #BC8E8A",
"@#	c #C08F87",
"##	c #C9A27F",
"$#	c #C9AB7E",
"%#	c #C8B85C",
"&#	c #D4C974",
"*#	c #DACE6F",
"=#	c #D9CC50",
"-#	c #E3D960",
";#	c #E4DA48",
">#	c #EBE157",
",#	c #EDE355",
"'#	c #EBE046",
")#	c #EDE455",
"!#	c #E9DE46",
"~#	c #E9E059",
"{#	c #E5DB5E",
"]#	c #DDCF4E",
"^#	c #DAD06C",
"/#	c #CEC058",
"(#	c #D2C777",
"_#	c #CEBE7A",
":#	c #C1A860",
"<#	c #CBAE7E",
"[#	c #C79B7F",
"}#	c #C69681",
"|#	c #C19086",
"1#	c #BC8F89",
"2#	c #9B98A0",
"3#	c #BA7C65",
"4#	c #C9A77E",
"5#	c #C5AD5F",
"6#	c #D0C278",
"7#	c #CCBE59",
"8#	c #DBCF6D",
"9#	c #E2D764",
"0#	c #E5D848",
"a#	c #EDE356",
"b#	c #EFE348",
"c#	c #F3EA55",
"d#	c #F4EB56",
"e#	c #F4EA50",
"f#	c #F5EB56",
"g#	c #F2E94C",
"h#	c #F2E953",
"i#	c #EEE455",
"j#	c #E6DB47",
"k#	c #E4D962",
"l#	c #D7C952",
"m#	c #D5CB72",
"n#	c #D2C577",
"o#	c #C5AF5E",
"p#	c #CBB47D",
"q#	c #C29A61",
"r#	c #C7A17F",
"s#	c #BF9088",
"t#	c #886B6A",
"u#	c #BF9162",
"v#	c #CBB67C",
"w#	c #C8B35D",
"x#	c #D2C555",
"y#	c #E8DF5A",
"z#	c #ECE147",
"A#	c #F3EB57",
"B#	c #F6EE58",
"C#	c #F8F164",
"D#	c #F8F269",
"E#	c #F7F16B",
"F#	c #F8F36B",
"G#	c #F7F160",
"H#	c #F5ED58",
"I#	c #EFE548",
"J#	c #EAE158",
"K#	c #DFD34B",
"L#	c #DBD16C",
"M#	c #D5CA73",
"N#	c #C9B65D",
"O#	c #CCBB7C",
"P#	c #C1A061",
"Q#	c #C79D7F",
"R#	c #BC8F8A",
"S#	c #8F6B68",
"T#	c #C49283",
"U#	c #C09661",
"V#	c #C9B95B",
"W#	c #D7CC70",
"X#	c #D9CC4F",
"Y#	c #E8DD5B",
"Z#	c #EEE554",
"`#	c #F5EB51",
" $	c #F8F163",
".$	c #F9F26F",
"+$	c #FBF47B",
"@$	c #FCF482",
"#$	c #FDF584",
"$$	c #FEF483",
"%$	c #FDF37D",
"&$	c #FAF375",
"*$	c #F8F266",
"=$	c #F5EE56",
"-$	c #F1E854",
";$	c #E6DC47",
">$	c #E1D763",
",$	c #D9CE6E",
"'$	c #CBBD5A",
")$	c #CFBE7A",
"!$	c #C2A660",
"~$	c #BB8463",
"{$	c #906A68",
"]$	c #B07469",
"^$	c #BD8463",
"/$	c #D0C079",
"($	c #CDBE59",
"_$	c #DCD16C",
":$	c #E1D44B",
"<$	c #F4EB57",
"[$	c #F8F161",
"}$	c #F9F274",
"|$	c #FDF583",
"1$	c #FEF68C",
"2$	c #FEF692",
"3$	c #FEF794",
"4$	c #FEF693",
"5$	c #FEF58E",
"6$	c #FEF587",
"7$	c #FBF379",
"8$	c #F8F166",
"9$	c #F5EC59",
"0$	c #EDE248",
"a$	c #E8DD5D",
"b$	c #DFD368",
"c$	c #D1C278",
"d$	c #C3AC5F",
"e$	c #B09193",
"f$	c #926A67",
"g$	c #8D6B69",
"h$	c #B07669",
"i$	c #C0A061",
"j$	c #CFC157",
"k$	c #E0D567",
"l$	c #E5DB48",
"m$	c #F9F05F",
"n$	c #F8F271",
"o$	c #FEF584",
"p$	c #FEF690",
"q$	c #FEF798",
"r$	c #FFF79B",
"s$	c #FFF89C",
"t$	c #FEF799",
"u$	c #F1E94D",
"v$	c #EBE357",
"w$	c #E2D863",
"x$	c #D2C455",
"y$	c #C6AF5E",
"z$	c #C9A77F",
"A$	c #BC8A62",
"B$	c #C29184",
"C$	c #BE9087",
"D$	c #946A67",
"E$	c #8E6B69",
"F$	c #BC8862",
"G$	c #C7A57F",
"H$	c #CEBC7B",
"I$	c #D2C676",
"J$	c #D3C556",
"K$	c #E3D863",
"L$	c #E9DE47",
"M$	c #F8F267",
"N$	c #FBF37D",
"O$	c #FFF797",
"P$	c #FFF89D",
"Q$	c #FFF89F",
"R$	c #FFF8A1",
"S$	c #FFF8A9",
"T$	c #FFF89E",
"U$	c #FFF799",
"V$	c #FDF482",
"W$	c #F8F36D",
"X$	c #F5EC54",
"Y$	c #D5C853",
"Z$	c #D3C974",
"`$	c #C7B15E",
" %	c #CAB47D",
".%	c #C9A97F",
"+%	c #C59681",
"@%	c #C29283",
"#%	c #BF8F86",
"$%	c #B19192",
"%%	c #946A66",
"&%	c #8F6B69",
"*%	c #BB8F8B",
"=%	c #B27768",
"-%	c #C9A87F",
";%	c #CEBD7A",
">%	c #D4C775",
",%	c #E4DA60",
"'%	c #EDE247",
")%	c #F5EE58",
"!%	c #F7F26E",
"~%	c #FFF89B",
"{%	c #FFF8A2",
"]%	c #FFF9A2",
"^%	c #FFF8A0",
"/%	c #FEF797",
"(%	c #FEF589",
"_%	c #FAF376",
":%	c #F6F059",
"<%	c #E9DF5C",
"[%	c #D8CB51",
"}%	c #C8AA7E",
"|%	c #C69781",
"1%	c #BE9086",
"2%	c #A49399",
"3%	c #B37768",
"4%	c #C39284",
"5%	c #C8A87E",
"6%	c #D3C774",
"7%	c #D6C853",
"8%	c #E6DC5F",
"9%	c #EDE246",
"0%	c #F6EE59",
"a%	c #F9F271",
"b%	c #FDF688",
"c%	c #FEF796",
"d%	c #FFF9AF",
"e%	c #FFFAAA",
"f%	c #FFFCB1",
"g%	c #FFFBA4",
"h%	c #FFF798",
"i%	c #FAF379",
"j%	c #F7EF5B",
"k%	c #E8DF5B",
"l%	c #DACC50",
"m%	c #D6CA72",
"n%	c #C8B55D",
"o%	c #BD8D62",
"p%	c #C69881",
"q%	c #C09086",
"r%	c #C29284",
"s%	c #E5DA5E",
"t%	c #ECE246",
"u%	c #FDF587",
"v%	c #FFFAA2",
"w%	c #FFFBA3",
"x%	c #FFFAA3",
"y%	c #F9F378",
"z%	c #F3E954",
"A%	c #E9E05B",
"B%	c #D5CA72",
"C%	c #D3C654",
"D%	c #E5DA60",
"E%	c #EDE146",
"F%	c #F5EC57",
"G%	c #F8F36C",
"H%	c #FFF89A",
"I%	c #FFF8A3",
"J%	c #FFF9A1",
"K%	c #FAF374",
"L%	c #F5EE57",
"M%	c #F0E653",
"N%	c #D8CB52",
"O%	c #D6CB73",
"P%	c #C9AA7F",
"Q%	c #A39399",
"R%	c #C0A161",
"S%	c #CEBB7B",
"T%	c #D3C677",
"U%	c #D1C355",
"V%	c #E3D763",
"W%	c #E9DD46",
"X%	c #F4EA55",
"Y%	c #F9F365",
"Z%	c #FEF68A",
"`%	c #FEF68F",
" &	c #FDF47F",
".&	c #F4EB51",
"+&	c #E4DA5F",
"@&	c #D4C653",
"#&	c #C6B15E",
"$&	c #BF9087",
"%&	c #B4908F",
"&&	c #B88F8B",
"*&	c #C09E61",
"=&	c #CCB87C",
"-&	c #DFD468",
";&	c #E6D948",
">&	c #F0E754",
",&	c #F7EF5C",
"'&	c #F8F16B",
")&	c #FDF580",
"!&	c #FEF68D",
"~&	c #FEF795",
"{&	c #FEF585",
"]&	c #F9F373",
"^&	c #F8F160",
"/&	c #F1E74A",
"(&	c #D3C456",
"_&	c #B09192",
":&	c #936A67",
"<&	c #8C6B6A",
"[&	c #C09085",
"}&	c #C39383",
"|&	c #BB8363",
"1&	c #CFC07A",
"2&	c #CDBE5A",
"3&	c #E0D34C",
"4&	c #ECE256",
"5&	c #F6F05C",
"6&	c #F9F370",
"7&	c #FEF68E",
"8&	c #FEF58F",
"9&	c #FEF58A",
"0&	c #FCF483",
"a&	c #F4EC59",
"b&	c #ECE146",
"c&	c #E5DC5E",
"d&	c #DCD26A",
"e&	c #CFC058",
"f&	c #CFC278",
"g&	c #C9A37F",
"h&	c #BE8F88",
"i&	c #B3908F",
"j&	c #916A67",
"k&	c #B19091",
"l&	c #C29183",
"m&	c #C89D80",
"n&	c #BF9662",
"o&	c #CEBC7C",
"p&	c #D6CB71",
"q&	c #D7CB51",
"r&	c #ECE455",
"s&	c #F1E84D",
"t&	c #F7F05D",
"u&	c #F7F267",
"v&	c #FAF47C",
"w&	c #FAF37D",
"x&	c #FBF47E",
"y&	c #F8F162",
"z&	c #F3EB50",
"A&	c #EFE655",
"B&	c #E5DA48",
"C&	c #E1D666",
"D&	c #CBBB5B",
"E&	c #C1A660",
"F&	c #C9A97E",
"G&	c #B88F8D",
"H&	c #B29090",
"I&	c #886C6A",
"J&	c #D2C876",
"K&	c #D1C356",
"L&	c #E6DC5D",
"M&	c #EADF46",
"N&	c #F1E955",
"O&	c #F3EC52",
"P&	c #F9F160",
"Q&	c #F8F265",
"R&	c #F7F265",
"S&	c #F7F266",
"T&	c #F7F05E",
"U&	c #F6EF5C",
"V&	c #F3EB56",
"W&	c #DED04D",
"X&	c #DBCF6E",
"Y&	c #C8B45D",
"Z&	c #C2A061",
"`&	c #C8A47E",
" *	c #C09087",
".*	c #AA726C",
"+*	c #B97C65",
"@*	c #C59781",
"#*	c #CAB07D",
"$*	c #CCBD5A",
"%*	c #D7CE6F",
"&*	c #DED368",
"**	c #E2D44A",
"=*	c #EBE059",
"-*	c #F4E94D",
";*	c #F3EB55",
">*	c #EFE649",
",*	c #EFE554",
"'*	c #EDE357",
")*	c #E3D848",
"!*	c #E2D665",
"~*	c #D6CA73",
"{*	c #C4AD5F",
"]*	c #C69880",
"^*	c #C29085",
"/*	c #AE9193",
"(*	c #A99296",
"_*	c #A7736E",
":*	c #C1A260",
"<*	c #E0D664",
"[*	c #E1D44A",
"}*	c #EBE159",
"|*	c #E9DD48",
"1*	c #ECE158",
"2*	c #E6DB48",
"3*	c #E7DD5E",
"4*	c #E2D762",
"5*	c #D9CE6F",
"6*	c #C3A660",
"7*	c #CBAD7E",
"8*	c #B77A65",
"9*	c #C7A27F",
"0*	c #C09A61",
"a*	c #CEBF59",
"b*	c #D7C853",
"c*	c #E1D466",
"d*	c #E0D665",
"e*	c #DACD50",
"f*	c #D3C876",
"g*	c #C9B57D",
"h*	c #C09D61",
"i*	c #C9A57F",
"j*	c #B5908F",
"k*	c #A27371",
"l*	c #B6908E",
"m*	c #C69C80",
"n*	c #CBB87C",
"o*	c #C7B45D",
"p*	c #D0C256",
"q*	c #D0C258",
"r*	c #CFBF7A",
"s*	c #9F969C",
"t*	c #A89296",
"u*	c #AF746B",
"v*	c #C7B35E",
"w*	c #D1C478",
"x*	c #C2A161",
"y*	c #B49090",
"z*	c #AF9193",
"A*	c #9799A2",
"B*	c #997174",
"C*	c #CCB37D",
"D*	c #C0A660",
"E*	c #CBBA7C",
"F*	c #C3AD5F",
"G*	c #CDBA7C",
"H*	c #C2A960",
"I*	c #C9B37D",
"J*	c #BD9089",
"K*	c #957275",
"L*	c #A6726F",
"M*	c #B98F8C",
"N*	c #BE9262",
"O*	c #C8AD7E",
"P*	c #BE9D61",
"Q*	c #BE8A62",
"R*	c #A6736E",
"S*	c #939AA4",
"T*	c #907277",
"U*	c #A17270",
"V*	c #BB8E8A",
"W*	c #BC8763",
"X*	c #C8A17F",
"Y*	c #BD9062",
"Z*	c #BD8F62",
"`*	c #B67967",
" =	c #B4908E",
".=	c #A37270",
"+=	c #9699A1",
"@=	c #836D6B",
"#=	c #5E575A",
"$=	c #909BA5",
"%=	c #8A7379",
"&=	c #B78F8D",
"*=	c #BA7F64",
"==	c #C69981",
"-=	c #B77B65",
";=	c #9C7272",
">=	c #959AA3",
",=	c #85747B",
"'=	c #967275",
")=	c #B77A66",
"!=	c #BA7D65",
"~=	c #B97D65",
"{=	c #C39384",
"]=	c #B57868",
"^=	c #BD9088",
"/=	c #977275",
"(=	c #939AA2",
"_=	c #8B9DA7",
":=	c #7E747C",
"<=	c #917277",
"[=	c #997273",
"}=	c #AD736C",
"|=	c #B37868",
"1=	c #B57967",
"2=	c #B47867",
"3=	c #AE756A",
"4=	c #AB9295",
"5=	c #756F6F",
"6=	c #8C9DA7",
"7=	c #909BA4",
"8=	c #A07371",
"9=	c #AC746B",
"0=	c #AF766A",
"a=	c #BC9089",
"b=	c #997274",
"c=	c #836D6C",
"d=	c #7F6E6D",
"e=	c #8D7378",
"f=	c #987174",
"g=	c #A8736D",
"h=	c #A27370",
"i=	c #A79297",
"j=	c #927276",
"k=	c #937276",
"l=	c #977274",
"m=	c #9A7273",
"n=	c #99989F",
"o=	c #967274",
"p=	c #9699A2",
"q=	c #7E6D6C",
"r=	c #866C6B",
"s=	c #876C6A",
"t=	c #8E6B68",
"u=	c #956A66",
"v=	c #896C6A",
"        . . + @ # $ % & * = - ; > , ' ) ! ~ { ] ^ / / ] { ~ ( ) ' _ > ; : < * & % [ # @ + . .       ",
"      . . + @ # [ } | = - ; 1 2 3 4 5 6 7 8 9 0 0 9 0 0 9 8 a 6 5 4 b c 1 d - e * } [ # @ + . .     ",
"    . . + @ $ % & f g h 1 c i j 6 8 0 k l m n n o p o n n q r s 9 8 6 t i c > ; u v & % $ @ + . .   ",
"  . . + @ $ % w = - x y b j z A B C n D E F F G H H H G F I J D n r k 9 7 j K L M : e N } $ @ + . . ",
". . + @ $ O w = P 1 Q 4 z 8 k q D J R S T U V W W X W Y Z U ` S G J D n s 9 z  .Q > : < N } $ @ + . ",
". + @ $ ..w +.P @.#.j a $.r %.&.H T Z *.=.-.;.>.,.'.,.).!.>.=.~.{.U H I D q ].a 5 3 ^.: < N } $ @ + ",
"+ @ $ /.w +.(._.b :.<.s [.J H T }.=.|.1.2.3.4.5.5.6.5.7.8.9.0.a.).b.*.c.G &.%.s 8 t b y ; < N % $ @ ",
"+ # d.O e.P _.b t 8 f.g.h.i.j.=.>.k.l.m.n.o.p.q.r.s.r.t.q.u.v.w.7.x.,.y.*.T I D r 9 z K y ; < N % # ",
"# [ z.e.A.@.3 B.9 r C.D.T ~.!.k.8.E.q.r.F.G.H.I.J.K.J.K.L.M.N.O.P.Q.5.2.>.R.S.H T.q 0 z b ^.: = & [ ",
"$ O f U.^.V.5 W.r X.Y.Z =.,.9.Z.q.`.G. +.+++@+#+$+%+$+&+*+++=+ +H.-+q.;+>+,+'+j.)+E q 9 t #.1 - f } ",
"/.w +.!+c j ~+{+X.D.V '+,+8.]+^+M./+++$+(+_+:+<+<+[+<+}+|+1+2+3+4+5+G.^+o.6.a.-.6+H E r 8 j Q x g w ",
"z.7+P y 8+7 s 9+G Z 0+a.7.o.-+a+b+c+d+|+e+f+g+h+i+j+k+l+m+n+o+<+p+q+r+s+M.t+w.a.;.j.G %.s a 4 c P = ",
"u+v+w+#.z 9 n h.U b.k.5.p.x+y+z+A+B+C+m+D+E+F+G+H+I+J+K+L+M+N+O+P+<+d+c+Q+N.q.w.k.b.S.R %.R+z b 1 - ",
"= P 2  .S+C E )+T+,.7.o.U+ +V+p+W+X+Y+Z+`+ @.@+@@@#@$@%@&@*@=@-@;@O+>@,@3+'@G.q.)@!@~@i.J {@8 j c ; ",
"g w+b z ]@%.D.{.|.^@/@-+(@V+_@o+O+:@<@[@}@|@1@2@3@4@5@6@7@8@9@0@a@Z+b@c@d@&+b+e@p.8.!.W G %.s z K > ",
": y  .~+r E U =.a.f@^+y+@+_@g@l+M+h@i@|@j@k@l@m@n@o@p@q@r@s@t@u@%@v@w@x@n+y@$+z@A@Q.B@C@S.I n 8 j L ",
"D@V.E@$.%.D.}.).8.q.N.b+F@W+O+G@ @}@H@I@J@K@L@M@N@O@P@Q@R@S@T@s@U@V@[@W@X@Y@_@Z@s+`@w.1.T+G %.k z  #",
".#i a l J ` b.k.+#@#/+3+B+##$#h@@@%#&#*#=#-#;#>#,#'#)#!#~#{#]#^#/#(#_#:#<#l+[#}#'@|#1#B@C@U J r ~+( ",
"L 2#9 n F Z |.4.q.M.3#d+Y@4#<@5#6#7#8#9#0#a#b#c#d#e#f#g#h#i#j#k#l#m#n#o#p#q#r#d@@+I.s#5.,.*.D.o 0 ] ",
"t#t ].%.G *.1.)@O. +%+|+u#Z+v#w#k@x#9#y#z#A#B#C#D#E#F#C#G#H#I#J#K#L#M#N#O#P#k+Q#F@5+-+R#a.~.S X.s S#",
" #z B X.i.~@x.v.-+T#2+>@U#<@+@V#W#X#Y#Z#`# $.$+$@$#$$$%$&$*$=$-$;$>$,$'$)$!$M+f+~$++G.u.9.C@U J r {$",
"~ a C J U -.9.]$M.++^$n+:@v@/$($_$:$a#<$[$}$|$1$2$3$4$5$6$7$8$9$0$a$b$l@c$d$L+O+B+#+I.q.5.|.e$I {@f$",
"g$8 {@I Z |.8.h$L.$+:+h+i$&@7@j$k$l$-$m$n$o$p$q$r$s$r$t$4$6$&$C#u$v$w$x$5@y$H+z$A$3+B$C$f@,.}.R n D$",
"E$8 n F j.>.>+s. +$+F$G$K+H$I$J$K$L$<$M$N$5$O$P$Q$R$S$T$U$2$V$W$X$Z#{#Y$Z$`$ %.%Y@+%@%#%f@1.$%D.o %%",
"&%9 n G *.,.*%=%B$q+[+-%h@;%>%o@,%'%)%!%#$4$~%{%]%]%]%^%P$/%(%_%:%-$<%[%M#w#v@}%c@|%++1%m.a.~.H %.%%",
"] 0 2%D.W !@f@3%4%q+e+5%a@;%6%7%8%9%0%a%b%c%P$d%e%f%g%]%T$h%1$i%j%h#k%l%m%n%*@Z+o%p%T#q%R#a.~.H %.%%",
"&%0 2%D.W ,.*%3%r%q+e+Y+a@;%6%7%s%t%B#n$u%c%P$^%v%w%x%R$T$O$1$y%j%z%A%L@B%n%*@M+o%p%T#q%R#a.~.H %.%%",
"g$A 2%G }.!.*%s.B$3+[+z$I+V@>%C%D%E%F%G%V$2$H%I%R$]%J%Q$s$c%6$K%L%M%a$N%O%w#v@P%Y@|%++#%R#1.$%D.o %%",
"~ 8 Q%I e$!.5.t+J.$+F$G$R%S%T%U%V%W%X%Y%i%Z%/%r$T$Q$T$P$h%`% &D#.&i#+&@&k@#& %5%Y@}#4%$&m.1.*.R n D$",
"( a r J S.%&&&h$I.*+:+m+*&=&6#l@-&;&>&,&'&)&!&~&U$H%U$/%p${&]&^&/&J#9#(&3@%@<@i+[+3+ +C$*%>._&I n :&",
"<&7 l J i.b.B@/@[&}&|&n+:@ @1&2&8#3&4&c#5&6&N$6$7&p$8&9&0&}$^&a&b&c&d&e&f&.@-@g&:+*+L.h&&&i&S.J r j&",
"t#z ]@D S k&a.E.-+l&F@m&n&<@o&%#p&q&c&r&s&t&u&&$v&w&x&_%!%y&z&A&B&C&m@D&V@E&F&f+|&++|#1#G&H&i.E s ^ ",
"I&t 0 n G }.,.7.r.I.@+|+X+M+v@`$J&K&k$L&M&N&O&P&Q&R&S&T&U&V&b&y#W&X&Z$Y&0@Z&`&<+&+4% *R#!@T+G o $.] ",
".#8+~+r J U C@.*o.M.+*@*o+k+#*.@8@$*%*&***=*b&-$c#-*;*>*,*'*)*!*o@~*H@{*H+;@f+]*4+^*h&>+i&/*(*{@8 ~ ",
"M #.z k X.H ~._*w.O.(@V+y@f+F&:*&@Y&I@W#l#<*[*Y#}*|*1*2*3*4*[%5*7#H@H$6*7*u#<+3+8*-+R#a.~@i.E s 7  #",
"h 2 j 9 n I Z ;.9.1#N.5+&+|+9*0*H+d$1&n#a*m@b*-&c*]#d*e*d&n@j$f*n%@@g*h*i*e+A+++H.q.8.j*_&R n 0 5 I&",
"- 1 K 7 B X.S k*l*5.t+^*3#@*m*X+E+K+n*@@o*T%($m%p&p*W#q*~*f*j@r*d$J+M+l+>@|&Z@y+^+f@a.~.` E r a 4 .#",
"= P c j s*n t*T b.a.u*$&a+}&|%F$9*U#-@ %.@+@v*f&w*%#w*N#/$;%d$v@x*E+h+o+_+@+ +-+v.B@y*z*(*n 0 5 A*: ",
"u+U.1 b z ]@%.B*j.|..*R#^+I.++F@|+c@O+F&*&C*D*v#E*F*G*H*v@I*R%M+n&r#m*(+*+/+q%J*4.j*W G %.s 7 K @.: ",
"z.e.P 2  .~+r K*G }.L*M*v.O.I.=+$+p+<+n+N*-%0*O*-@i$L+P*M+.%l+r#Q*d@3++* +A@u.8.R*$%i.J r 8 j 2 : = ",
"/.w v+S*Q 5 9 T*J i.U*j*4.V*r.H.l&4+q+_+W*Q#o%X*9*Y*9*Z*f+>@[+d@(+*+T#`*O./@>+ =.=i.E n 0 t +=@=- #=",
"$ O 7+$=@.V.z %=n E )+W ;.&=m.p.#%H.4%++*=3+(+p%==:+==,@@*+%&+++-=I.q%t+V*4.>.T+;=t*o $.z b .#: v } ",
"# d.z.e.P >=i ,=$.n '=S X C@!@4.V*h$#%[&)=4%+*++++!=++~=++{=/+L.]=^=Q.)@a.L*_&i./=o ]@z 8+(=; = & [ ",
"@ # /._=+.P y :=z 0 <=E [=S.k&;.a.}=f@1#t+$&|=q%|#1=[&2=q%#%s.u.3=>+&=).b.{.4=J <=$.7 8+2 : < N % $ ",
"+ @ 5=/.6=v+7=(=i z W.r 9+I i.8=~@;.a.3.9=f@3=Q.1#0=a=/@m.f@7.9.k.>.H&Y i.b=X.{@0 z 8+2 c=d=#=% $ @ ",
". + @ $ /._=v+P y b B.~+e=n E f=i.{.T+b.;. =g=a.&=0.&=k.a. =).H&h=_&i.[=i=j=s 8 t K (=: d=#=} $ @ + ",
". . + @ $ O 6=+.P ^.V.2#7 0 r k=E l=G i.{.}.R.k&~..=~..=~.$%X S.m=R i=o r $.7 n=+=^.P g u+} $ @ + . ",
"  . . + # 5=O _=e.$=w+2 K 5 a 0 s n %.E o=R [=G S m=S Y.R R t*E 9+n r 0 a t i p=w+P < w } $ # + . . ",
"    . . + # $ /.z.7+U.7=1 A*i 5 7 8 $.s q n o %.%.%.%.%.o n {@r ]@s*7 t 8+Q ^.7=U.f z.% $ # + . .   ",
"      . . + @ $ d.O u+= q=: r=s= #~ t=^ j&:&%%u=u=u=u=u=%%:&f${$t=~  #v=.#: : < u+O [ $ @ + . .     "};
