/* XPM */
static char * Enemy2_xpm[] = {
"50 50 75 1",
" 	c #4C585C",
".	c #707070",
"+	c #83A0AA",
"@	c #5E7A84",
"#	c #494640",
"$	c #3E3223",
"%	c #433A2F",
"&	c #433B30",
"*	c #3E3325",
"=	c #515453",
"-	c #423D36",
";	c #006BFF",
">	c #3C2B12",
",	c #413B32",
"'	c #525756",
")	c #525654",
"!	c #3C290E",
"~	c #3C2A0F",
"{	c #43413B",
"]	c #3B2808",
"^	c #4D4D49",
"/	c #40372D",
"(	c #3D2C16",
"_	c #454541",
":	c #535856",
"<	c #4C4C48",
"[	c #3C2B14",
"}	c #3B2705",
"|	c #3B280B",
"1	c #4B4A45",
"2	c #3D2E18",
"3	c #252525",
"4	c #423F37",
"5	c #5D5D5D",
"6	c #40392F",
"7	c #464038",
"8	c #8C8C8C",
"9	c #413B33",
"0	c #423E37",
"a	c #4E4F4B",
"b	c #44433F",
"c	c #423D34",
"d	c #3C2A10",
"e	c #4A4842",
"f	c #403425",
"g	c #413527",
"h	c #44413C",
"i	c #42372A",
"j	c #3F3529",
"k	c #42382C",
"l	c #3F3528",
"m	c #42392D",
"n	c #3F3427",
"o	c #443C32",
"p	c #3F3426",
"q	c #443D33",
"r	c #4A4943",
"s	c #413C33",
"t	c #3B280A",
"u	c #565E5E",
"v	c #453F37",
"w	c #494741",
"x	c #44423D",
"y	c #3E3324",
"z	c #453E35",
"A	c #464139",
"B	c #423F38",
"C	c #4F514E",
"D	c #47433C",
"E	c #48453E",
"F	c #403930",
"G	c #433A30",
"H	c #4A4742",
"I	c #47443D",
"J	c #47413A",
"             .........................            ",
"           ...+++++++++++++++++++++++..           ",
"         ...++++++++++++++++++++++++++..          ",
"       ...+++++++++++++++++++++++++++++...        ",
"     ...++++++++++++@+@++@+@+++++++++++++...      ",
"    ..+++++++++@+@++@+@++@+@++@+@++++++++++..     ",
"   ..+++++@+@++@+@++@+@++@+@++@+@++@+@++++++..    ",
"  ..++++++@+@++@+@++@+@++@+@++@+@++@+@+++++++..   ",
"  .++++@++@+@++@+@++@+@++@+@++@+@++@+@++@+++++..  ",
" ..++++@++@+@++@+@++@+@++@+@++@+@++@+@++@++++++.. ",
"..+++++@++@+@++@+@++@+@++@+@++@+@++@+@++@+++++++..",
".++++++@++@+@++@#$%$%%$&*=+@++@+@++@+@++@++++++++.",
".++++++@++@+@+-%;;;;;;;;;>#,'+@+@++@+@++@++++++++.",
".++++++@++@+@)!;;;;;;;;;;;;;~{@+@++@+@++@++++++++.",
".++++++@++@+{;;;;;;;;;;;;;;;;]%^@++@+@++@++++++++.",
".++++++@++@+/;;;;;;;;;;;;;;;;;;(_++@+@++@++++++++.",
".++++++@++:<[}}};;;;;;;;;;;;;;;;|%$%1@++@++++++++.",
".++++++@+{23333}}}}};;;;;;;;;;;;;};;>4++@++++++++.",
".++++++@^|355553333}};;;;;;;;;;;;};;;6++@++++++++.",
".++++++@735885533333}};;;;;;;;;;;}};;9++@++++++++.",
".++++++@7358555333333};;;;;;;;;;;;};;0++@++++++++.",
".++++++@7335553333333};;;;;;;;;;;;};;{++@++++++++.",
".++++++@a}33333333333};;;;;;;;;;;;};;b++@++++++++.",
".++++++@+c333333333}}};;;;;;;;;;;;};;de+@++++++++.",
".++++++@++(}}}3333}};;;;;;;;;;;;;;};;;f+@++++++++.",
".++++++@++g;;;}}}};;;;;;;;;;;;;;;;};;;g+@++++++++.",
".++++++@+h~;;;;;;;;;;;;;;;;;;;;;;;};;;i+@++++++++.",
".++++++@+j;;;;;;;;;;;;;;;;;;;;;;;;;};;i+@++++++++.",
".++++++@+j;;;;;;;;;;;;;;;;;;;;;;;;;};;k+@++++++++.",
".++++++@+l;;;;;;;;;;;;;;;;;;;;;;;;;};;m+@++++++++.",
".++++++@+l;;;;;;;;;;;;;;;;;;;;;;;;;};;%+@++++++++.",
".++++++@+n;;;;;;;;;;;;;;;;;;;;;;;;;};;&+@++++++++.",
".++++++@+n;;;;;;;;;;;;;;;;;;;;;;;;}};;o+@++++++++.",
".++++++@+p;;;;;;;};;;;;;;;;;;;;;;;};;;q+@++++++++.",
".++++++@+*;;;;;;>9rsee,e,t;;;;;;;;};;|u+@++++++++.",
".++++++@+*;;;;;;v@++@+@++w~;;;;;;;};(x++@++++++++.",
".++++++@+y;;;;;;z@++@+@++@A;;;;;;(BeC@++@++++++++.",
".++++++@+y;;;;;;q@++@+@++@D;;;;;;z+@+@++@++++++++.",
".++++++@+$;;;;;;o@++@+@++@E;;;;;;z+@+@++@++++++++.",
".++++++@+Ft;;;;;o@++@+@++@#;;;;;;z+@+@++@+++++++..",
"..+++++@++w;;;;;&@++@+@++@e;;;;;;z+@+@++@++++++.. ",
" .+++++@++@<;;;;%@++@+@++@1;;;;;;v+@+@++@+++++..  ",
" ..++++@++@)y&*GH@++@+@++@u|;;;;9++@+@++@+++++..  ",
"  .++++@++@+@++@+@++@+@++@+lt$tt_++@+@++@++++..   ",
"  ..++++++@+@++@+@++@+@++@+@++IJ@++@+@++++++..    ",
"    .+++++@+@++@+@++@+@++@+@++@+@++@+@+++++..     ",
"     .+++++++++@+@++@+@++@+@++@+@++++++++++..     ",
"     ..+++++++++++++@+@++@+@++++@+++++++++..      ",
"       ..++++++++++++++++++++++++++++++++..       ",
"        ..................................        "};
