/* XPM */
static char * Enemy_xpm[] = {
"50 50 71 1",
" 	c #4C585C",
".	c #707070",
"+	c #83A0AA",
"@	c #5E7A84",
"#	c #515452",
"$	c #3E3223",
"%	c #433A2F",
"&	c #494640",
"*	c #525756",
"=	c #413B32",
"-	c #3C2B12",
";	c #006BFF",
">	c #423D36",
",	c #43413B",
"'	c #3C2A0F",
")	c #3C290E",
"!	c #525654",
"~	c #4D4D49",
"{	c #3B2808",
"]	c #454541",
"^	c #3D2C16",
"/	c #40372D",
"(	c #4B4A45",
"_	c #3B280B",
":	c #3B2705",
"<	c #3C2B14",
"[	c #4C4C48",
"}	c #535856",
"|	c #423E36",
"1	c #252525",
"2	c #3D2E18",
"3	c #40392F",
"4	c #5D5D5D",
"5	c #4C4B47",
"6	c #413B33",
"7	c #8C8C8C",
"8	c #464038",
"9	c #423E37",
"0	c #44433F",
"a	c #4D4E4A",
"b	c #4A4842",
"c	c #3C2A10",
"d	c #403425",
"e	c #413527",
"f	c #42372A",
"g	c #43403A",
"h	c #3F3529",
"i	c #42382C",
"j	c #42392D",
"k	c #3F3528",
"l	c #433B30",
"m	c #3F3427",
"n	c #443C32",
"o	c #443D33",
"p	c #3F3426",
"q	c #565D5D",
"r	c #3B280A",
"s	c #3E3325",
"t	c #44423D",
"u	c #494741",
"v	c #453F37",
"w	c #4F514E",
"x	c #423F38",
"y	c #464139",
"z	c #453E35",
"A	c #3E3324",
"B	c #47433C",
"C	c #48453E",
"D	c #403930",
"E	c #515553",
"F	c #3E3121",
"             .........................            ",
"           ...+++++++++++++++++++++++..           ",
"         ...++++++++++++++++++++++++++..          ",
"       ...+++++++++++++++++++++++++++++...        ",
"     ...++++++++++++@+@++@+@+++++++++++++...      ",
"    ..+++++++++@+@++@+@++@+@++@+@++++++++++..     ",
"   ..+++++@+@++@+@++@+@++@+@++@+@++@+@++++++..    ",
"  ..++++++@+@++@+@++@+@++@+@++@+@++@+@+++++++..   ",
"  .++++@++@+@++@+@++@+@++@+@++@+@++@+@++@+++++..  ",
" ..++++@++@+@++@+@++@+@++@+@++@+@++@+@++@++++++.. ",
"..+++++@++@+@++@+@++@+@++@+@++@+@++@+@++@+++++++..",
".++++++@++@+@++@+@++@+@+#$%$%%$%$&+@+@++@++++++++.",
".++++++@++@+@++@+@++@*=&-;;;;;;;;;%>+@++@++++++++.",
".++++++@++@+@++@+@++,';;;;;;;;;;;;;)!@++@++++++++.",
".++++++@++@+@++@+@~%{;;;;;;;;;;;;;;;;,++@++++++++.",
".++++++@++@+@++@+]^;;;;;;;;;;;;;;;;;;/++@++++++++.",
".++++++@++@+@(%$%_;;;;;;;;;;;;;;;;:::<[}@++++++++.",
".++++++@++@+|-;;:;;;;;;;;;;;;;:::::11112,++++++++.",
".++++++@++@+3;;;:;;;;;;;;;;;;::111144441_5+++++++.",
".++++++@++@+6;;::;;;;;;;;;;;::111114477418+++++++.",
".++++++@++@+9;;:;;;;;;;;;;;;:1111114447418+++++++.",
".++++++@++@+,;;:;;;;;;;;;;;;:1111111444118+++++++.",
".++++++@++@+0;;:;;;;;;;;;;;;:11111111111:a+++++++.",
".++++++@++@bc;;:;;;;;;;;;;;;:::111111111=++++++++.",
".++++++@++@d;;;:;;;;;;;;;;;;;;::1111:::^@++++++++.",
".++++++@++@e;;;:;;;;;;;;;;;;;;;;::::;;;e@++++++++.",
".++++++@++@f;;;:;;;;;;;;;;;;;;;;;;;;;;;'g++++++++.",
".++++++@++@f;;:;;;;;;;;;;;;;;;;;;;;;;;;;h++++++++.",
".++++++@++@i;;:;;;;;;;;;;;;;;;;;;;;;;;;;h++++++++.",
".++++++@++@j;;:;;;;;;;;;;;;;;;;;;;;;;;;;k++++++++.",
".++++++@++@%;;:;;;;;;;;;;;;;;;;;;;;;;;;;k++++++++.",
".++++++@++@l;;:;;;;;;;;;;;;;;;;;;;;;;;;;m++++++++.",
".++++++@++@n;;::;;;;;;;;;;;;;;;;;;;;;;;;m++++++++.",
".++++++@++@o;;;:;;;;;;;;;;;;;;;;:;;;;;;;p++++++++.",
".++++++@++@q_;;:;;;;;;;;r=b=bb=b=-;;;;;;s++++++++.",
".++++++@++@+t^;:;;;;;;;'u@+@++@+@v;;;;;;s++++++++.",
".++++++@++@+@wbx^;;;;;;y+@+@++@+@z;;;;;;A++++++++.",
".++++++@++@+@++@z;;;;;;B+@+@++@+@o;;;;;;A++++++++.",
".++++++@++@+@++@z;;;;;;C+@+@++@+@n;;;;;;$++++++++.",
".++++++@++@+@++@z;;;;;;&+@+@++@+@n;;;;;rD+++++++..",
"..+++++@++@+@++@z;;;;;;b+@+@++@+@l;;;;;&@++++++.. ",
" .+++++@++@+@++@v;;;;;;(+@+@++@+@%;;;;[+@+++++..  ",
" ..++++@++@+@++@+6;;;;_q+@+@++@+@&%$%$E+@+++++..  ",
"  .++++@++@+@++@+]rrF:p++@+@++@+@++@+@++@++++..   ",
"  ..++++++@+@++@+@8B@+@++@+@++@+@++@+@++++++..    ",
"    .+++++@+@++@+@++@+@++@+@++@+@++@+@+++++..     ",
"     .+++++++++@+@++@+@++@+@++@+@++++++++++..     ",
"     ..+++++++++++++@+@++@+@++++@+++++++++..      ",
"       ..++++++++++++++++++++++++++++++++..       ",
"        ..................................        "};
