/* XPM */
static char * Opened_Exit_xpm[] = {
"50 50 58 1",
" 	c #4C585C",
".	c #707070",
"+	c #83A0AA",
"@	c #5E7A84",
"#	c #2B363A",
"$	c #212A2E",
"%	c #151E21",
"&	c #303536",
"*	c #353B3D",
"=	c #767676",
"-	c #1C272B",
";	c #4A413E",
">	c #9E9E9E",
",	c #343C3F",
"'	c #282E30",
")	c #767677",
"!	c #C60000",
"~	c #454241",
"{	c #49403B",
"]	c #343737",
"^	c #253338",
"/	c #383F41",
"(	c #35393A",
"_	c #2E3333",
":	c #353E41",
"<	c #354247",
"[	c #2A2B2C",
"}	c #384246",
"|	c #393938",
"1	c #323433",
"2	c #453A31",
"3	c #394245",
"4	c #232D30",
"5	c #000000",
"6	c #2C3233",
"7	c #473C32",
"8	c #06090A",
"9	c #010303",
"0	c #3E4446",
"a	c #3B3E3E",
"b	c #0A0603",
"c	c #090D0F",
"d	c #232F33",
"e	c #1E2A2E",
"f	c #030505",
"g	c #444C4E",
"h	c #3E484C",
"i	c #364043",
"j	c #393E40",
"k	c #222E33",
"l	c #030506",
"m	c #363F43",
"n	c #37454A",
"o	c #2D3032",
"p	c #243136",
"q	c #3A474C",
"r	c #3A4548",
"s	c #353736",
"             .........................            ",
"           ...+++++++++++++++++++++++..           ",
"         ...++++++++++++++++++++++++++..          ",
"       ...+++++++++++++++++++++++++++++...        ",
"     ...++++++++++++@+@++@+@+++++++++++++...      ",
"    ..+++++++++@+@++@+@++@+@++@+@++++++++++..     ",
"   ..+++++@+@++@+@++@+@++@+@++@+@++@+@++++++..    ",
"  ..++++++@+@++@+@++@+@++@+@++@+@++@+@+++++++..   ",
"  .++++@++@+@++@+@++@+@++@+@++@+@++@+@++@+++++..  ",
" ..++++@++@+@++@+@++@+@++@+@++@+@++@+@++@++++++.. ",
"..+++++@++@+@++@+@++@+@++@+@++@+@++@+@++@+++++++..",
".++++++@++@+@++@+@++@+@++@+@++@+@++@+@++@++++++++.",
".++++++@++@+@++@+@++@+@++@+@++@+@++@+@++@++++++++.",
".++++++@#$%$%$$%$%$$%$%$$%$%$$%&@++@+@++@++++++++.",
".++++++@*=======================-++@+@++@++++++++.",
".++++++@+;===>>>>>>>>>>>>>>>>>>>=,+@+@++@++++++++.",
".++++++@++')=>!!!!!!!!!!!!!!!!!>==~@+@++@++++++++.",
".++++++@++@{=>>>>>>>>>>>>>>>>>>>>==]+@++@++++++++.",
".++++++@++@+^==>!!!!!!!!!!!!!!!!>===/@++@++++++++.",
".++++++@++@+@(=>>>>>>>>>>>>>>>>>>>>==_++@++++++++.",
".++++++@++@+@+:==>!!!!!!!!!!!!!!!!>===<+@++++++++.",
".++++++@++@+@++[=>>>>>>>>>>>>>>>>>>===)}@++++++++.",
".++++++@++@+@++@|======================)1++++++++.",
".++++++@++@+@++@+2=======================3+++++++.",
".++++++@++@+@++@+@455555555555555555555556+++++++.",
".++++++@++@+@++@+7855555555555555555555590+++++++.",
".++++++@++@+@++@ab555555555555555555555cd++++++++.",
".++++++@++@+@++ef555555555555555555555fg@++++++++.",
".++++++@++@+@+h95555555555555555555559i+@++++++++.",
".++++++@++@+@j85555555555555555555558k++@++++++++.",
".++++++@++@+-f555555555555555555555lm@++@++++++++.",
".++++++@++@nl5555555555555555555558o+@++@++++++++.",
".++++++@++p85555555555555555555558q@+@++@++++++++.",
".++++++@+#l555555555555555555555lr+@+@++@++++++++.",
".++++++@+#%$%$$%$%$$%$%$$%$%$$%$s++@+@++@++++++++.",
".++++++@++@+@++@+@++@+@++@+@++@+@++@+@++@++++++++.",
".++++++@++@+@++@+@++@+@++@+@++@+@++@+@++@++++++++.",
".++++++@++@+@++@+@++@+@++@+@++@+@++@+@++@++++++++.",
".++++++@++@+@++@+@++@+@++@+@++@+@++@+@++@++++++++.",
".++++++@++@+@++@+@++@+@++@+@++@+@++@+@++@+++++++..",
"..+++++@++@+@++@+@++@+@++@+@++@+@++@+@++@++++++.. ",
" .+++++@++@+@++@+@++@+@++@+@++@+@++@+@++@+++++..  ",
" ..++++@++@+@++@+@++@+@++@+@++@+@++@+@++@+++++..  ",
"  .++++@++@+@++@+@++@+@++@+@++@+@++@+@++@++++..   ",
"  ..++++++@+@++@+@++@+@++@+@++@+@++@+@++++++..    ",
"    .+++++@+@++@+@++@+@++@+@++@+@++@+@+++++..     ",
"     .+++++++++@+@++@+@++@+@++@+@++++++++++..     ",
"     ..+++++++++++++@+@++@+@++++@+++++++++..      ",
"       ..++++++++++++++++++++++++++++++++..       ",
"        ..................................        "};
