/* XPM */
static char * Player2_xpm[] = {
"50 50 103 2",
"  	c #4C585C",
". 	c #707070",
"+ 	c #83A0AA",
"@ 	c #5E7A84",
"# 	c #535756",
"$ 	c #45413A",
"% 	c #494741",
"& 	c #525858",
"* 	c #4C4F4E",
"= 	c #A00A0A",
"- 	c #A00000",
"; 	c #3C2B12",
"> 	c #494640",
", 	c #413B32",
"' 	c #525857",
") 	c #535A5A",
"! 	c #3C2A12",
"~ 	c #3C2A0F",
"{ 	c #464641",
"] 	c #4C504F",
"^ 	c #9F1619",
"/ 	c #3B2808",
"( 	c #433A2F",
"_ 	c #4E4F4B",
": 	c #444039",
"< 	c #3D2C16",
"[ 	c #464744",
"} 	c #535958",
"| 	c #4C4C48",
"1 	c #3C2B14",
"2 	c #3B2705",
"3 	c #3B280B",
"4 	c #3E3223",
"5 	c #3D2F19",
"6 	c #252525",
"7 	c #4D4E4B",
"8 	c #5D5D5D",
"9 	c #45423C",
"0 	c #47433D",
"a 	c #8C8C8C",
"b 	c #45443F",
"c 	c #464642",
"d 	c #474945",
"e 	c #4F5452",
"f 	c #3B280A",
"g 	c #484A48",
"h 	c #4B4D4A",
"i 	c #3C2B13",
"j 	c #4C4E4B",
"k 	c #3E3020",
"l 	c #41372A",
"m 	c #42392E",
"n 	c #42382D",
"o 	c #44423D",
"p 	c #41392F",
"q 	c #433B30",
"r 	c #433C32",
"s 	c #41392E",
"t 	c #433D33",
"u 	c #443E36",
"v 	c #443F37",
"w 	c #454139",
"x 	c #40382D",
"y 	c #484843",
"z 	c #4C4D49",
"A 	c #4F524F",
"B 	c #45433D",
"C 	c #3B290F",
"D 	c #576163",
"E 	c #4C4F4C",
"F 	c #3D2D19",
"G 	c #4E5352",
"H 	c #40382C",
"I 	c #47433B",
"J 	c #4A4944",
"K 	c #505757",
"L 	c #4D514F",
"M 	c #596263",
"N 	c #41392D",
"O 	c #46423A",
"P 	c #4B4B46",
"Q 	c #453E36",
"R 	c #41382D",
"S 	c #464139",
"T 	c #4C4D48",
"U 	c #453F37",
"V 	c #494A47",
"W 	c #3B290D",
"X 	c #4D4D4A",
"Y 	c #464038",
"Z 	c #A01013",
"` 	c #454037",
" .	c #46413A",
"..	c #4F514E",
"+.	c #453F36",
"@.	c #46423C",
"#.	c #586060",
"$.	c #505351",
"%.	c #5A6465",
"&.	c #44413C",
"*.	c #4A4A45",
"=.	c #4D5352",
"-.	c #4A4B47",
"                          . . . . . . . . . . . . . . . . . . . . . . . . .                         ",
"                      . . . + + + + + + + + + + + + + + + + + + + + + + + . .                       ",
"                  . . . + + + + + + + + + + + + + + + + + + + + + + + + + + . .                     ",
"              . . . + + + + + + + + + + + + + + + + + + + + + + + + + + + + + . . .                 ",
"          . . . + + + + + + + + + + + + @ + @ + + @ + @ + + + + + + + + + + + + + . . .             ",
"        . . + + + + + + + + + @ + @ + + @ + @ + + @ + @ + + @ + @ + + + + + + + + + + . .           ",
"      . . + + + + + @ + @ + + @ + @ + + @ + @ + + @ + @ + + @ + @ + + @ + @ + + + + + + . .         ",
"    . . + + + + + + @ + @ + + @ + @ + + @ + @ + + @ + @ + + @ + @ + + @ + @ + + + + + + + . .       ",
"    . + + + + @ + + @ + @ + + @ + @ # $ $ $ $ % $ $ $ & + + @ + @ + + @ + @ + + @ + + + + + . .     ",
"  . . + + + + @ + + @ + @ + + @ * $ = - - - - - - - - ; > , ' + @ + + @ + @ + + @ + + + + + + . .   ",
". . + + + + + @ + + @ + @ + + ) ! - - - - - - - - - - - - - ~ { @ + + @ + @ + + @ + + + + + + + . . ",
". + + + + + + @ + + @ + @ + ] ^ - - - - - - - - - - - - - - - / ( _ + @ + @ + + @ + + + + + + + + . ",
". + + + + + + @ + + @ + @ + : - - - - - - - - - - - - - - - - - - < [ @ + @ + + @ + + + + + + + + . ",
". + + + + + + @ + + @ + } | 1 2 2 2 - - - - - - - - - - - - - - - - 3 ( 4 ( | + @ + + + + + + + + . ",
". + + + + + + @ + + @ ] 5 6 6 6 6 2 2 2 2 2 - - - - - - - - - - - - - 2 - - ; { @ + + + + + + + + . ",
". + + + + + + @ + + 7 3 6 8 8 8 8 6 6 6 6 2 2 - - - - - - - - - - - - 2 - - - 9 @ + + + + + + + + . ",
". + + + + + + @ + + 0 6 8 a a 8 8 6 6 6 6 6 2 2 - - - - - - - - - - - 2 2 - - b @ + + + + + + + + . ",
". + + + + + + @ + + 0 6 8 a 8 8 8 6 6 6 6 6 6 2 - - - - - - - - - - - - 2 - - c @ + + + + + + + + . ",
". + + + + + + @ + + 0 6 6 8 8 8 6 6 6 6 6 6 6 2 - - - - - - - - - - - - 2 - - d @ + + + + + + + + . ",
". + + + + + + @ + + e f 6 6 6 6 6 6 6 6 6 6 6 2 - - - - - - - - - - - - 2 - - g @ + + + + + + + + . ",
". + + + + + + @ + + @ h 6 6 6 6 6 6 6 6 6 2 2 2 - - - - - - - - - - - - 2 - - i j + + + + + + + + . ",
". + + + + + + @ + + @ + k 2 2 2 6 6 6 6 2 2 - - - - - - - - - - - - - - 2 - - - l + + + + + + + + . ",
". + + + + + + @ + + @ + m - - - 2 2 2 2 - - - - - - - - - - - - - - - - 2 - - - n + + + + + + + + . ",
". + + + + + + @ + + @ o ~ - - - - - - - - - - - - - - - - - - - - - - - 2 - - - ( + + + + + + + + . ",
". + + + + + + @ + + @ p - - - - - - - - - - - - - - - - - - - - - - - - - 2 - - q + + + + + + + + . ",
". + + + + + + @ + + @ p - - - - - - - - - - - - - - - - - - - - - - - - - 2 - - r + + + + + + + + . ",
". + + + + + + @ + + @ s - - - - - - - - - - - - - - - - - - - - - - - - - 2 - - t + + + + + + + + . ",
". + + + + + + @ + + @ s - - - - - - - - - - - - - - - - - - - - - - - - - 2 - - u + + + + + + + + . ",
". + + + + + + @ + + @ s - - - - - - - - - - - - - - - - - - - - - - - - - 2 - - v + + + + + + + + . ",
". + + + + + + @ + + @ s - - - - - - - - - - - - - - - - - - - - - - - - 2 2 - - w + + + + + + + + . ",
". + + + + + + @ + + @ s - - - - - - - 2 - - - - - - - - - - - - - - - - 2 - - - $ + + + + + + + + . ",
". + + + + + + @ + + @ x - - - - - - ; y z y z A y z B f - - - - - - - - 2 - - C D + + + + + + + + . ",
". + + + + + + @ + + @ x - - - - - - 0 + @ + @ + + @ + E i - - - - - - - 2 - F G @ + + + + + + + + . ",
". + + + + + + @ + + @ H - - - - - - I + @ + @ + + @ + @ J - - - - - - < K L M + @ + + + + + + + + . ",
". + + + + + + @ + + @ N - - - - - - O + @ + @ + + @ + @ P - - - - - - Q + @ + + @ + + + + + + + + . ",
". + + + + + + @ + + @ R - - - - - - S + @ + @ + + @ + @ T - - - - - - U + @ + + @ + + + + + + + + . ",
". + + + + + + @ + + @ V W - - - - - S + @ + @ + + @ + @ X - - - - - - Y + @ + + @ + + + + + + + + . ",
". + + + + + + @ + + @ + j Z - - - - ` + @ + @ + + @ + @ _ - - - - - -  .+ @ + + @ + + + + + + + + . ",
". + + + + + + @ + + @ + @ ..- - - - +.+ @ + @ + + @ + @ ..- - - - - - @.+ @ + + @ + + + + + + + + . ",
". + + + + + + @ + + @ + @ #.$ $ $ $ $.+ @ + @ + + @ + @ %.C - - - - &.@ + @ + + @ + + + + + + + . . ",
". . + + + + + @ + + @ + @ + + @ + @ + + @ + @ + + @ + @ + *.4 w W f =.@ + @ + + @ + + + + + + . .   ",
"  . + + + + + @ + + @ + @ + + @ + @ + + @ + @ + + @ + @ + + @ + -.| + @ + @ + + @ + + + + + . .     ",
"  . . + + + + @ + + @ + @ + + @ + @ + + @ + @ + + @ + @ + + @ + @ + + @ + @ + + @ + + + + + . .     ",
"    . + + + + @ + + @ + @ + + @ + @ + + @ + @ + + @ + @ + + @ + @ + + @ + @ + + @ + + + + . .       ",
"    . . + + + + + + @ + @ + + @ + @ + + @ + @ + + @ + @ + + @ + @ + + @ + @ + + + + + + . .         ",
"        . + + + + + @ + @ + + @ + @ + + @ + @ + + @ + @ + + @ + @ + + @ + @ + + + + + . .           ",
"          . + + + + + + + + + @ + @ + + @ + @ + + @ + @ + + @ + @ + + + + + + + + + + . .           ",
"          . . + + + + + + + + + + + + + @ + @ + + @ + @ + + + + @ + + + + + + + + + . .             ",
"              . . + + + + + + + + + + + + + + + + + + + + + + + + + + + + + + + + . .               ",
"                . . . . . . . . . . . . . . . . . . . . . . . . . . . . . . . . . .                 "};
