/* XPM */
static char * Player_xpm[] = {
"50 50 74 1",
" 	c #4C585C",
".	c #707070",
"+	c #83A0AA",
"@	c #5E7A84",
"#	c #515452",
"$	c #3E3223",
"%	c #433A2F",
"&	c #494640",
"*	c #525756",
"=	c #413B32",
"-	c #3C2B12",
";	c #A00000",
">	c #A00505",
",	c #423D36",
"'	c #43413B",
")	c #3C2A0F",
"!	c #3C290E",
"~	c #525654",
"{	c #4D4D49",
"]	c #3B2808",
"^	c #9F1619",
"/	c #454541",
"(	c #3D2C16",
"_	c #40372D",
":	c #4B4A45",
"<	c #3B280B",
"[	c #3B2705",
"}	c #3C2B14",
"|	c #4C4C48",
"1	c #535856",
"2	c #423E36",
"3	c #252525",
"4	c #3D2E18",
"5	c #40392F",
"6	c #5D5D5D",
"7	c #4C4B47",
"8	c #413B33",
"9	c #8C8C8C",
"0	c #464038",
"a	c #423E37",
"b	c #44433F",
"c	c #4D4E4A",
"d	c #4A4842",
"e	c #3C2A10",
"f	c #403425",
"g	c #413527",
"h	c #42372A",
"i	c #43403A",
"j	c #3F3529",
"k	c #42382C",
"l	c #42392D",
"m	c #3F3528",
"n	c #433B30",
"o	c #3F3427",
"p	c #443C32",
"q	c #443D33",
"r	c #3F3426",
"s	c #565D5D",
"t	c #3B280A",
"u	c #3E3325",
"v	c #44423D",
"w	c #494741",
"x	c #453F37",
"y	c #4F514E",
"z	c #423F38",
"A	c #464139",
"B	c #453E35",
"C	c #3E3324",
"D	c #47433C",
"E	c #48453E",
"F	c #403930",
"G	c #A00D0F",
"H	c #515553",
"I	c #3E3121",
"             .........................            ",
"           ...+++++++++++++++++++++++..           ",
"         ...++++++++++++++++++++++++++..          ",
"       ...+++++++++++++++++++++++++++++...        ",
"     ...++++++++++++@+@++@+@+++++++++++++...      ",
"    ..+++++++++@+@++@+@++@+@++@+@++++++++++..     ",
"   ..+++++@+@++@+@++@+@++@+@++@+@++@+@++++++..    ",
"  ..++++++@+@++@+@++@+@++@+@++@+@++@+@+++++++..   ",
"  .++++@++@+@++@+@++@+@++@+@++@+@++@+@++@+++++..  ",
" ..++++@++@+@++@+@++@+@++@+@++@+@++@+@++@++++++.. ",
"..+++++@++@+@++@+@++@+@++@+@++@+@++@+@++@+++++++..",
".++++++@++@+@++@+@++@+@+#$%$%%$%$&+@+@++@++++++++.",
".++++++@++@+@++@+@++@*=&-;;;;;;;;>%,+@++@++++++++.",
".++++++@++@+@++@+@++');;;;;;;;;;;;;!~@++@++++++++.",
".++++++@++@+@++@+@{%];;;;;;;;;;;;;;;^'++@++++++++.",
".++++++@++@+@++@+/(;;;;;;;;;;;;;;;;;;_++@++++++++.",
".++++++@++@+@:%$%<;;;;;;;;;;;;;;;;[[[}|1@++++++++.",
".++++++@++@+2-;;[;;;;;;;;;;;;;[[[[[33334'++++++++.",
".++++++@++@+5;;;[;;;;;;;;;;;;[[333366663<7+++++++.",
".++++++@++@+8;;[[;;;;;;;;;;;[[333336699630+++++++.",
".++++++@++@+a;;[;;;;;;;;;;;;[3333336669630+++++++.",
".++++++@++@+';;[;;;;;;;;;;;;[3333333666330+++++++.",
".++++++@++@+b;;[;;;;;;;;;;;;[33333333333[c+++++++.",
".++++++@++@de;;[;;;;;;;;;;;;[[[333333333=++++++++.",
".++++++@++@f;;;[;;;;;;;;;;;;;;[[3333[[[(@++++++++.",
".++++++@++@g;;;[;;;;;;;;;;;;;;;;[[[[;;;g@++++++++.",
".++++++@++@h;;;[;;;;;;;;;;;;;;;;;;;;;;;)i++++++++.",
".++++++@++@h;;[;;;;;;;;;;;;;;;;;;;;;;;;;j++++++++.",
".++++++@++@k;;[;;;;;;;;;;;;;;;;;;;;;;;;;j++++++++.",
".++++++@++@l;;[;;;;;;;;;;;;;;;;;;;;;;;;;m++++++++.",
".++++++@++@%;;[;;;;;;;;;;;;;;;;;;;;;;;;;m++++++++.",
".++++++@++@n;;[;;;;;;;;;;;;;;;;;;;;;;;;;o++++++++.",
".++++++@++@p;;[[;;;;;;;;;;;;;;;;;;;;;;;;o++++++++.",
".++++++@++@q;;;[;;;;;;;;;;;;;;;;[;;;;;;;r++++++++.",
".++++++@++@s<;;[;;;;;;;;t=d=dd=d=-;;;;;;u++++++++.",
".++++++@++@+v(;[;;;;;;;)w@+@++@+@x;;;;;;u++++++++.",
".++++++@++@+@ydz(;;;;;;A+@+@++@+@B;;;;;;C++++++++.",
".++++++@++@+@++@B;;;;;;D+@+@++@+@q;;;;;;C++++++++.",
".++++++@++@+@++@B;;;;;;E+@+@++@+@p;;;;;;$++++++++.",
".++++++@++@+@++@B;;;;;;&+@+@++@+@p;;;;;tF+++++++..",
"..+++++@++@+@++@B;;;;;;d+@+@++@+@n;;;;G&@++++++.. ",
" .+++++@++@+@++@x;;;;;;:+@+@++@+@%;;;;|+@+++++..  ",
" ..++++@++@+@++@+8;;;;<s+@+@++@+@&%$%$H+@+++++..  ",
"  .++++@++@+@++@+/ttI[r++@+@++@+@++@+@++@++++..   ",
"  ..++++++@+@++@+@0D@+@++@+@++@+@++@+@++++++..    ",
"    .+++++@+@++@+@++@+@++@+@++@+@++@+@+++++..     ",
"     .+++++++++@+@++@+@++@+@++@+@++++++++++..     ",
"     ..+++++++++++++@+@++@+@++++@+++++++++..      ",
"       ..++++++++++++++++++++++++++++++++..       ",
"        ..................................        "};
